<svg xmlns="http://www.w3.org/2000/svg" viewBox="0 0 100 100">
  <defs>
    <linearGradient id="grad" x1="0%" y1="0%" x2="100%" y2="100%">
      <stop offset="0%" style="stop-color:#1e40af;stop-opacity:1" />
      <stop offset="50%" style="stop-color:#2563eb;stop-opacity:1" />
      <stop offset="100%" style="stop-color:#3b82f6;stop-opacity:1" />
    </linearGradient>
  </defs>

  <!-- Background circle -->
  <circle cx="50" cy="50" r="48" fill="url(#grad)"/>

  <!-- Network nodes -->
  <circle cx="50" cy="25" r="6" fill="white" opacity="0.9"/>
  <circle cx="75" cy="40" r="5" fill="white" opacity="0.9"/>
  <circle cx="75" cy="60" r="5" fill="white" opacity="0.9"/>
  <circle cx="50" cy="75" r="6" fill="white" opacity="0.9"/>
  <circle cx="25" cy="60" r="5" fill="white" opacity="0.9"/>
  <circle cx="25" cy="40" r="5" fill="white" opacity="0.9"/>

  <!-- Center compute node (larger) -->
  <circle cx="50" cy="50" r="10" fill="white"/>

  <!-- Connection lines -->
  <line x1="50" y1="25" x2="50" y2="40" stroke="white" stroke-width="2" opacity="0.7"/>
  <line x1="50" y1="60" x2="50" y2="75" stroke="white" stroke-width="2" opacity="0.7"/>
  <line x1="50" y1="40" x2="75" y2="40" stroke="white" stroke-width="2" opacity="0.7"/>
  <line x1="50" y1="60" x2="75" y2="60" stroke="white" stroke-width="2" opacity="0.7"/>
  <line x1="50" y1="40" x2="25" y2="40" stroke="white" stroke-width="2" opacity="0.7"/>
  <line x1="50" y1="60" x2="25" y2="60" stroke="white" stroke-width="2" opacity="0.7"/>

  <!-- CPU symbol in center -->
  <rect x="45" y="45" width="10" height="10" fill="#2563eb" rx="1"/>
  <line x1="42" y1="48" x2="45" y2="48" stroke="#2563eb" stroke-width="1"/>
  <line x1="42" y1="52" x2="45" y2="52" stroke="#2563eb" stroke-width="1"/>
  <line x1="55" y1="48" x2="58" y2="48" stroke="#2563eb" stroke-width="1"/>
  <line x1="55" y1="52" x2="58" y2="52" stroke="#2563eb" stroke-width="1"/>
  <line x1="48" y1="42" x2="48" y2="45" stroke="#2563eb" stroke-width="1"/>
  <line x1="52" y1="42" x2="52" y2="45" stroke="#2563eb" stroke-width="1"/>
  <line x1="48" y1="55" x2="48" y2="58" stroke="#2563eb" stroke-width="1"/>
  <line x1="52" y1="55" x2="52" y2="58" stroke="#2563eb" stroke-width="1"/>
</svg>
